<?xml version="1.0" encoding="utf-8"?>
<svg xmlns="http://www.w3.org/2000/svg" version="1.1" width="1900" height="1100">

<line x1="0" y1="0" x2="1900" y2="0" stroke="lightgrey" />
<text x="5" y="-5" fill="lightgrey" >0</text>
<line x1="0" y1="100" x2="1900" y2="100" stroke="lightgrey" />
<text x="5" y="95" fill="lightgrey" >100</text>
<line x1="0" y1="200" x2="1900" y2="200" stroke="lightgrey" />
<text x="5" y="195" fill="lightgrey" >200</text>
<line x1="0" y1="300" x2="1900" y2="300" stroke="lightgrey" />
<text x="5" y="295" fill="lightgrey" >300</text>
<line x1="0" y1="400" x2="1900" y2="400" stroke="lightgrey" />
<text x="5" y="395" fill="lightgrey" >400</text>
<line x1="0" y1="500" x2="1900" y2="500" stroke="lightgrey" />
<text x="5" y="495" fill="lightgrey" >500</text>
<line x1="0" y1="600" x2="1900" y2="600" stroke="lightgrey" />
<text x="5" y="595" fill="lightgrey" >600</text>
<line x1="0" y1="700" x2="1900" y2="700" stroke="lightgrey" />
<text x="5" y="695" fill="lightgrey" >700</text>
<line x1="0" y1="800" x2="1900" y2="800" stroke="lightgrey" />
<text x="5" y="795" fill="lightgrey" >800</text>
<line x1="0" y1="900" x2="1900" y2="900" stroke="lightgrey" />
<text x="5" y="895" fill="lightgrey" >900</text>
<line x1="0" y1="1000" x2="1900" y2="1000" stroke="lightgrey" />
<text x="5" y="995" fill="lightgrey" >1000</text>
<line x1="0" y1="1100" x2="1900" y2="1100" stroke="lightgrey" />
<text x="5" y="1095" fill="lightgrey" >1100</text>
<line x1="0" y1="0" x2="0" y2="1100" stroke="lightgrey" />
<text x="5" y="15" fill="lightgrey" >0</text>
<line x1="100" y1="0" x2="100" y2="1100" stroke="lightgrey" />
<text x="105" y="15" fill="lightgrey" >100</text>
<line x1="200" y1="0" x2="200" y2="1100" stroke="lightgrey" />
<text x="205" y="15" fill="lightgrey" >200</text>
<line x1="300" y1="0" x2="300" y2="1100" stroke="lightgrey" />
<text x="305" y="15" fill="lightgrey" >300</text>
<line x1="400" y1="0" x2="400" y2="1100" stroke="lightgrey" />
<text x="405" y="15" fill="lightgrey" >400</text>
<line x1="500" y1="0" x2="500" y2="1100" stroke="lightgrey" />
<text x="505" y="15" fill="lightgrey" >500</text>
<line x1="600" y1="0" x2="600" y2="1100" stroke="lightgrey" />
<text x="605" y="15" fill="lightgrey" >600</text>
<line x1="700" y1="0" x2="700" y2="1100" stroke="lightgrey" />
<text x="705" y="15" fill="lightgrey" >700</text>
<line x1="800" y1="0" x2="800" y2="1100" stroke="lightgrey" />
<text x="805" y="15" fill="lightgrey" >800</text>
<line x1="900" y1="0" x2="900" y2="1100" stroke="lightgrey" />
<text x="905" y="15" fill="lightgrey" >900</text>
<line x1="1000" y1="0" x2="1000" y2="1100" stroke="lightgrey" />
<text x="1005" y="15" fill="lightgrey" >1000</text>
<line x1="1100" y1="0" x2="1100" y2="1100" stroke="lightgrey" />
<text x="1105" y="15" fill="lightgrey" >1100</text>
<line x1="1200" y1="0" x2="1200" y2="1100" stroke="lightgrey" />
<text x="1205" y="15" fill="lightgrey" >1200</text>
<line x1="1300" y1="0" x2="1300" y2="1100" stroke="lightgrey" />
<text x="1305" y="15" fill="lightgrey" >1300</text>
<line x1="1400" y1="0" x2="1400" y2="1100" stroke="lightgrey" />
<text x="1405" y="15" fill="lightgrey" >1400</text>
<line x1="1500" y1="0" x2="1500" y2="1100" stroke="lightgrey" />
<text x="1505" y="15" fill="lightgrey" >1500</text>
<line x1="1600" y1="0" x2="1600" y2="1100" stroke="lightgrey" />
<text x="1605" y="15" fill="lightgrey" >1600</text>
<line x1="1700" y1="0" x2="1700" y2="1100" stroke="lightgrey" />
<text x="1705" y="15" fill="lightgrey" >1700</text>
<line x1="1800" y1="0" x2="1800" y2="1100" stroke="lightgrey" />
<text x="1805" y="15" fill="lightgrey" >1800</text>
<line x1="1900" y1="0" x2="1900" y2="1100" stroke="lightgrey" />
<text x="1905" y="15" fill="lightgrey" >1900</text>
<circle cx="600" cy="100" r="15" fill="rgb(4,244,4)" />
<text x="570" y="80" fill="rgb(0,0,0)" >Lille</text>
<circle cx="600" cy="100" r="2" fill="rgb(255,0,0)" />
<circle cx="400" cy="200" r="15" fill="rgb(4,244,4)" />
<text x="370" y="180" fill="rgb(0,0,0)" >Rouen</text>
<circle cx="400" cy="200" r="2" fill="rgb(255,0,0)" />
<circle cx="100" cy="300" r="15" fill="rgb(54,88,64)" />
<text x="70" y="280" fill="rgb(0,0,0)" >Brest</text>
<circle cx="100" cy="300" r="2" fill="rgb(255,0,0)" />
<circle cx="300" cy="300" r="15" fill="rgb(210,144,200)" />
<text x="270" y="280" fill="rgb(0,0,0)" >Rennes</text>
<circle cx="300" cy="300" r="2" fill="rgb(255,0,0)" />
<circle cx="500" cy="300" r="15" fill="rgb(10,0,216)" />
<text x="470" y="280" fill="rgb(0,0,0)" >Paris</text>
<circle cx="500" cy="300" r="2" fill="rgb(255,0,0)" />
<circle cx="700" cy="300" r="15" fill="rgb(210,144,200)" />
<text x="670" y="280" fill="rgb(0,0,0)" >Reims</text>
<circle cx="700" cy="300" r="2" fill="rgb(255,0,0)" />
<circle cx="900" cy="300" r="15" fill="rgb(54,88,64)" />
<text x="870" y="280" fill="rgb(0,0,0)" >Strasbourg</text>
<circle cx="900" cy="300" r="2" fill="rgb(255,0,0)" />
<circle cx="300" cy="400" r="15" fill="rgb(4,244,4)" />
<text x="270" y="380" fill="rgb(0,0,0)" >Nantes</text>
<circle cx="300" cy="400" r="2" fill="rgb(255,0,0)" />
<circle cx="400" cy="400" r="15" fill="rgb(4,244,4)" />
<text x="370" y="380" fill="rgb(0,0,0)" >Tours</text>
<circle cx="400" cy="400" r="2" fill="rgb(255,0,0)" />
<circle cx="500" cy="500" r="15" fill="rgb(4,244,4)" />
<text x="470" y="480" fill="rgb(0,0,0)" >Limoges</text>
<circle cx="500" cy="500" r="2" fill="rgb(255,0,0)" />
<circle cx="600" cy="500" r="15" fill="rgb(210,144,200)" />
<text x="570" y="480" fill="rgb(0,0,0)" >ClermontF</text>
<circle cx="600" cy="500" r="2" fill="rgb(255,0,0)" />
<circle cx="700" cy="500" r="15" fill="rgb(160,44,140)" />
<text x="670" y="480" fill="rgb(0,0,0)" >Lyon</text>
<circle cx="700" cy="500" r="2" fill="rgb(255,0,0)" />
<circle cx="300" cy="600" r="15" fill="rgb(54,88,64)" />
<text x="270" y="580" fill="rgb(0,0,0)" >Bordeaux</text>
<circle cx="300" cy="600" r="2" fill="rgb(255,0,0)" />
<circle cx="400" cy="700" r="15" fill="rgb(4,244,4)" />
<text x="370" y="680" fill="rgb(0,0,0)" >Toulouse</text>
<circle cx="400" cy="700" r="2" fill="rgb(255,0,0)" />
<circle cx="600" cy="800" r="15" fill="rgb(4,244,4)" />
<text x="570" y="780" fill="rgb(0,0,0)" >Montpellier</text>
<circle cx="600" cy="800" r="2" fill="rgb(255,0,0)" />
<circle cx="700" cy="800" r="15" fill="rgb(4,244,4)" />
<text x="670" y="780" fill="rgb(0,0,0)" >Marseille</text>
<circle cx="700" cy="800" r="2" fill="rgb(255,0,0)" />
<circle cx="900" cy="800" r="15" fill="rgb(104,188,124)" />
<text x="870" y="780" fill="rgb(0,0,0)" >Nice</text>
<circle cx="900" cy="800" r="2" fill="rgb(255,0,0)" />
<line x1="600" y1="100" x2="400" y2="200" stroke="rgb(0,0,0)" />
<text x="500" y="150" fill="rgb(0,0,0)" >225</text>
<line x1="600" y1="100" x2="500" y2="300" stroke="rgb(0,0,0)" />
<text x="550" y="200" fill="rgb(0,0,0)" >260</text>
<line x1="600" y1="100" x2="700" y2="300" stroke="rgb(0,0,0)" />
<text x="650" y="200" fill="rgb(0,0,0)" >213</text>
<line x1="400" y1="200" x2="300" y2="300" stroke="rgb(0,0,0)" />
<text x="350" y="250" fill="rgb(0,0,0)" >312</text>
<line x1="400" y1="200" x2="500" y2="300" stroke="rgb(0,0,0)" />
<text x="450" y="250" fill="rgb(0,0,0)" >135</text>
<line x1="100" y1="300" x2="300" y2="300" stroke="rgb(0,0,0)" />
<text x="200" y="300" fill="rgb(0,0,0)" >245</text>
<line x1="100" y1="300" x2="300" y2="400" stroke="rgb(0,0,0)" />
<text x="200" y="350" fill="rgb(0,0,0)" >295</text>
<line x1="300" y1="300" x2="500" y2="300" stroke="rgb(0,0,0)" />
<text x="400" y="300" fill="rgb(0,0,0)" >359</text>
<line x1="300" y1="300" x2="300" y2="400" stroke="rgb(0,0,0)" />
<text x="300" y="350" fill="rgb(0,0,0)" >107</text>
<line x1="500" y1="300" x2="400" y2="400" stroke="rgb(0,0,0)" />
<text x="450" y="350" fill="rgb(0,0,0)" >239</text>
<line x1="500" y1="300" x2="500" y2="500" stroke="rgb(0,0,0)" />
<text x="500" y="400" fill="rgb(0,0,0)" >392</text>
<line x1="500" y1="300" x2="600" y2="500" stroke="rgb(0,0,0)" />
<text x="550" y="400" fill="rgb(0,0,0)" >423</text>
<line x1="500" y1="300" x2="700" y2="500" stroke="rgb(0,0,0)" />
<text x="600" y="400" fill="rgb(0,0,0)" >466</text>
<line x1="500" y1="300" x2="700" y2="300" stroke="rgb(0,0,0)" />
<text x="600" y="300" fill="rgb(0,0,0)" >146</text>
<line x1="700" y1="300" x2="700" y2="500" stroke="rgb(0,0,0)" />
<text x="700" y="400" fill="rgb(0,0,0)" >489</text>
<line x1="700" y1="300" x2="900" y2="300" stroke="rgb(0,0,0)" />
<text x="800" y="300" fill="rgb(0,0,0)" >351</text>
<line x1="900" y1="300" x2="700" y2="500" stroke="rgb(0,0,0)" />
<text x="800" y="400" fill="rgb(0,0,0)" >493</text>
<line x1="300" y1="400" x2="400" y2="400" stroke="rgb(0,0,0)" />
<text x="350" y="400" fill="rgb(0,0,0)" >216</text>
<line x1="400" y1="400" x2="300" y2="600" stroke="rgb(0,0,0)" />
<text x="350" y="500" fill="rgb(0,0,0)" >347</text>
<line x1="500" y1="500" x2="400" y2="700" stroke="rgb(0,0,0)" />
<text x="450" y="600" fill="rgb(0,0,0)" >290</text>
<line x1="500" y1="500" x2="600" y2="500" stroke="rgb(0,0,0)" />
<text x="550" y="500" fill="rgb(0,0,0)" >230</text>
<line x1="600" y1="500" x2="700" y2="500" stroke="rgb(0,0,0)" />
<text x="650" y="500" fill="rgb(0,0,0)" >167</text>
<line x1="600" y1="500" x2="600" y2="800" stroke="rgb(0,0,0)" />
<text x="600" y="650" fill="rgb(0,0,0)" >332</text>
<line x1="700" y1="500" x2="700" y2="800" stroke="rgb(0,0,0)" />
<text x="700" y="650" fill="rgb(0,0,0)" >314</text>
<line x1="300" y1="600" x2="400" y2="700" stroke="rgb(0,0,0)" />
<text x="350" y="650" fill="rgb(0,0,0)" >245</text>
<line x1="400" y1="700" x2="600" y2="800" stroke="rgb(0,0,0)" />
<text x="500" y="750" fill="rgb(0,0,0)" >243</text>
<line x1="600" y1="800" x2="700" y2="800" stroke="rgb(0,0,0)" />
<text x="650" y="800" fill="rgb(0,0,0)" >169</text>
<line x1="700" y1="800" x2="900" y2="800" stroke="rgb(0,0,0)" />
<text x="800" y="800" fill="rgb(0,0,0)" >199</text>


</svg>
